HIERARCHY
ROOT joint_Root
{
	OFFSET 0.0 0.0 0.0
	CHANNELS 6 Xposition Yposition Zposition Zrotation Xrotation Yrotation 
	JOINT Hips
	{
		OFFSET 4.5925 91.4895 -427.239
		CHANNELS 6 Xposition Yposition Zposition Zrotation Xrotation Yrotation 
		JOINT Spine
		{
			OFFSET 15.7357 0.0 0.0
			CHANNELS 6 Xposition Yposition Zposition Zrotation Xrotation Yrotation 
			JOINT Chest
			{
				OFFSET 8.98455 -0.406207 0.0
				CHANNELS 6 Xposition Yposition Zposition Zrotation Xrotation Yrotation 
				JOINT Neck
				{
					OFFSET 16.3773 0.0 0.0
					CHANNELS 6 Xposition Yposition Zposition Zrotation Xrotation Yrotation 
					JOINT Head
					{
						OFFSET 6.45672 0.0 0.0
						CHANNELS 6 Xposition Yposition Zposition Zrotation Xrotation Yrotation 
						End Site
						{
							OFFSET 0.0 0.0 0.0
						}
					}
				}
				JOINT Shoulder_L
				{
					OFFSET 12.9942 -0.242716 4.98039
					CHANNELS 6 Xposition Yposition Zposition Zrotation Xrotation Yrotation 
					JOINT UpperArm_L
					{
						OFFSET 5.34809 0.0 0.0
						CHANNELS 6 Xposition Yposition Zposition Zrotation Xrotation Yrotation 
						JOINT LowerArm_L
						{
							OFFSET 24.3286 1.87007e-05 0.0
							CHANNELS 6 Xposition Yposition Zposition Zrotation Xrotation Yrotation 
							JOINT Hand_L
							{
								OFFSET 22.2916 0.0 0.0
								CHANNELS 6 Xposition Yposition Zposition Zrotation Xrotation Yrotation 
								End Site
								{
									OFFSET 0.0 0.0 0.0
								}
							}
						}
					}
				}
				JOINT Shoulder_R
				{
					OFFSET 12.9945 -0.242716 -4.98039
					CHANNELS 6 Xposition Yposition Zposition Zrotation Xrotation Yrotation 
					JOINT UpperArm_R
					{
						OFFSET -5.34813 0.0 0.0
						CHANNELS 6 Xposition Yposition Zposition Zrotation Xrotation Yrotation 
						JOINT LowerArm_R
						{
							OFFSET -24.3289 0.000322201 0.0
							CHANNELS 6 Xposition Yposition Zposition Zrotation Xrotation Yrotation 
							JOINT Hand_R
							{
								OFFSET -22.2915 -0.000108084 0.0
								CHANNELS 6 Xposition Yposition Zposition Zrotation Xrotation Yrotation 
								End Site
								{
									OFFSET 0.0 0.0 0.0
								}
							}
						}
					}
				}
			}
		}
		JOINT UpperLeg_L
		{
			OFFSET -2.19248 -6.46944 0.0
			CHANNELS 6 Xposition Yposition Zposition Zrotation Xrotation Yrotation 
			JOINT LowerLeg_L
			{
				OFFSET 39.0811 0.0 -1.23785e-05
				CHANNELS 6 Xposition Yposition Zposition Zrotation Xrotation Yrotation 
				JOINT Foot_L
				{
					OFFSET 40.9854 0.0 -1.26872e-05
					CHANNELS 6 Xposition Yposition Zposition Zrotation Xrotation Yrotation 
					JOINT Toes_L
					{
						OFFSET 11.7543 0.0 0.0
						CHANNELS 6 Xposition Yposition Zposition Zrotation Xrotation Yrotation 
						End Site
						{
							OFFSET 0.0 0.0 0.0
						}
					}
				}
			}
		}
		JOINT UpperLeg_R
		{
			OFFSET -2.19251 6.46944 0.0
			CHANNELS 6 Xposition Yposition Zposition Zrotation Xrotation Yrotation 
			JOINT LowerLeg_R
			{
				OFFSET -39.0811 -0.00228153 -0.0401928
				CHANNELS 6 Xposition Yposition Zposition Zrotation Xrotation Yrotation 
				JOINT Foot_R
				{
					OFFSET -40.9854 0.0 0.0
					CHANNELS 6 Xposition Yposition Zposition Zrotation Xrotation Yrotation 
					JOINT Toes_R
					{
						OFFSET -11.7543 0.0 0.0
						CHANNELS 6 Xposition Yposition Zposition Zrotation Xrotation Yrotation 
						End Site
						{
							OFFSET 0.0 0.0 0.0
						}
					}
				}
			}
		}
	}
}
MOTION
Frames:	6
Frame Time:	0.0333333
0.000000 0.000000 0.000000 0.000000 0.000000 -0.000000 -1.496960 90.263100 -1.163280 89.446900 -3.343500 11.165000 15.735700 0.000005 -0.000001 89.833300 77.869800 -89.131200 8.984550 -0.406207 -0.000000 16.494800 -0.016182 1.408500 16.377300 -0.000001 -0.000001 6.622070 -4.580750 -0.629549 6.456720 -0.000001 -0.000000 -5.322440 -4.180960 1.475510 12.994200 -0.242716 4.980390 -89.623600 -1.109880 -71.266300 5.348090 -0.000007 -0.000001 -74.255600 -28.027500 -84.328700 24.328600 0.000019 0.000005 29.666600 -1.628800 -92.856700 22.291600 -0.000001 0.000005 16.172100 5.155980 3.800040 12.994500 -0.242716 -4.980390 88.803600 10.018200 -83.154100 -5.348130 -0.000001 -0.000004 -56.968900 34.618100 -22.023900 -24.328900 0.000322 -0.000009 1.654500 4.401200 -20.638200 -22.291500 -0.000108 -0.000004 16.741900 5.425450 -3.783480 -2.192480 -6.469440 -0.000000 -174.031000 -13.240200 -1.395450 39.081100 -0.000007 -0.000012 -0.226812 0.336005 34.020700 40.985400 -0.000006 -0.000013 -0.568890 3.130190 -70.963900 11.754300 -0.000000 0.000003 -0.000245 -0.002197 -16.659900 -2.192510 6.469440 -0.000001 174.371000 19.902700 179.644000 -39.081100 -0.002282 -0.040193 -0.227051 0.347944 33.505600 -40.985400 0.000008 0.000006 4.227580 12.074900 -71.744700 -11.754300 -0.000006 -0.000006 -0.002261 -0.031940 -17.871900
0.000000 0.000000 0.000000 0.000000 0.000000 -0.000000 -1.503350 90.260100 -1.152770 89.460800 -3.313320 11.142100 15.735700 0.000005 -0.000001 89.764800 77.877600 -89.072600 8.984550 -0.406207 -0.000000 16.479300 -0.045539 1.392730 16.377300 -0.000001 -0.000001 6.649680 -4.631090 -0.631467 6.456720 -0.000001 -0.000000 -5.304260 -4.206400 1.471570 12.994200 -0.242716 4.980390 -89.623100 -1.111980 -71.272800 5.348090 -0.000007 -0.000001 -74.243000 -27.985400 -84.402300 24.328600 0.000019 0.000005 29.589600 -1.579440 -92.779000 22.291600 -0.000001 0.000005 16.215400 5.155880 3.802150 12.994500 -0.242716 -4.980390 88.802400 9.980290 -83.121900 -5.348130 -0.000001 -0.000004 -56.964900 34.689500 -22.104500 -24.328900 0.000322 -0.000009 1.630820 4.338020 -20.638500 -22.291500 -0.000108 -0.000004 16.730000 5.426720 -3.826840 -2.192480 -6.469440 -0.000000 -174.046000 -13.229300 -1.415660 39.081100 -0.000007 -0.000012 -0.227490 0.336965 34.024300 40.985400 -0.000006 -0.000013 -0.566710 3.156600 -70.972000 11.754300 -0.000000 0.000003 -0.000233 -0.002106 -16.656600 -2.192510 6.469440 -0.000001 174.372000 19.914400 179.623000 -39.081100 -0.002282 -0.040193 -0.226649 0.347095 33.523900 -40.985400 0.000008 0.000006 4.223950 12.031000 -71.764800 -11.754300 -0.000006 -0.000006 -0.002265 -0.031990 -17.873900
0.000000 0.000000 0.000000 0.000000 0.000000 -0.000000 -1.513830 90.262100 -1.143520 89.456600 -3.281190 11.138700 15.735700 0.000005 -0.000001 89.692100 77.879900 -89.005400 8.984550 -0.406207 -0.000000 16.474600 -0.076246 1.386240 16.377300 -0.000001 -0.000001 6.638090 -4.658940 -0.657777 6.456720 -0.000001 -0.000000 -5.270870 -4.229510 1.464370 12.994200 -0.242716 4.980390 -89.615900 -1.132540 -71.261900 5.348090 -0.000007 -0.000001 -74.177700 -27.950000 -84.447400 24.328600 0.000019 0.000005 29.745300 -1.550960 -92.711800 22.291600 -0.000001 0.000005 16.153000 5.156060 3.798010 12.994500 -0.242716 -4.980390 88.797800 9.968590 -83.087700 -5.348130 -0.000001 -0.000004 -56.973800 34.701100 -22.162200 -24.328900 0.000322 -0.000009 1.628390 4.324340 -20.669800 -22.291500 -0.000108 -0.000004 16.749600 5.425860 -3.797320 -2.192480 -6.469440 -0.000000 -174.043000 -13.195400 -1.413520 39.081100 -0.000007 -0.000012 -0.229259 0.339721 34.013600 40.985400 -0.000006 -0.000013 -0.580858 3.134270 -70.968000 11.754300 -0.000000 0.000003 -0.000251 -0.002237 -16.661400 -2.192510 6.469440 -0.000001 174.376000 19.932000 179.642000 -39.081100 -0.002282 -0.040193 -0.223247 0.342171 33.507700 -40.985400 0.000008 0.000006 4.239280 12.031600 -71.773300 -11.754300 -0.000006 -0.000006 -0.002353 -0.033049 -17.917000
0.000000 0.000000 0.000000 0.000000 0.000000 -0.000000 -1.518230 90.261500 -1.127480 89.474500 -3.290260 11.139100 15.735700 0.000005 -0.000001 89.634600 77.874200 -88.958800 8.984550 -0.406207 -0.000000 16.486000 -0.101020 1.367930 16.377300 -0.000001 -0.000001 6.637910 -4.662300 -0.688387 6.456720 -0.000001 -0.000000 -5.293120 -4.235560 1.404640 12.994200 -0.242716 4.980390 -89.617200 -1.128520 -71.262600 5.348090 -0.000007 -0.000001 -74.125200 -27.966600 -84.465700 24.328600 0.000019 0.000005 29.789900 -1.564790 -92.731000 22.291600 -0.000001 0.000005 16.140700 5.156880 3.777860 12.994500 -0.242716 -4.980390 88.801400 9.947420 -83.093800 -5.348130 -0.000001 -0.000004 -57.010200 34.640600 -22.213200 -24.328900 0.000322 -0.000009 1.643000 4.348340 -20.734400 -22.291500 -0.000108 -0.000004 16.735200 5.426010 -3.802730 -2.192480 -6.469440 -0.000000 -174.052000 -13.214000 -1.397590 39.081100 -0.000007 -0.000012 -0.227756 0.337642 34.002000 40.985400 -0.000006 -0.000013 -0.576320 3.162580 -70.970700 11.754300 -0.000000 0.000003 -0.000233 -0.002105 -16.656600 -2.192510 6.469440 -0.000001 174.372000 19.936000 179.636000 -39.081100 -0.002282 -0.040193 -0.220445 0.337678 33.528000 -40.985400 0.000008 0.000006 4.308710 12.021200 -71.805400 -11.754300 -0.000006 -0.000006 -0.002251 -0.031813 -17.866700
0.000000 0.000000 0.000000 0.000000 0.000000 -0.000000 -1.520570 90.259200 -1.117070 89.479900 -3.310620 11.162800 15.735700 0.000005 -0.000001 89.644500 77.867000 -88.975000 8.984550 -0.406207 -0.000000 16.500500 -0.097366 1.354910 16.377300 -0.000001 -0.000001 6.648030 -4.663000 -0.720558 6.456720 -0.000001 -0.000000 -5.320010 -4.240280 1.368930 12.994200 -0.242716 4.980390 -89.613000 -1.139710 -71.241100 5.348090 -0.000007 -0.000001 -74.091200 -27.919200 -84.466400 24.328600 0.000019 0.000005 29.795000 -1.598660 -92.789400 22.291600 -0.000001 0.000005 16.125600 5.156900 3.777700 12.994500 -0.242716 -4.980390 88.799000 9.949080 -83.081800 -5.348130 -0.000001 -0.000004 -56.978900 34.651300 -22.261200 -24.328900 0.000322 -0.000009 1.630820 4.305400 -20.781200 -22.291500 -0.000108 -0.000004 16.753300 5.427120 -3.840350 -2.192480 -6.469440 -0.000000 -174.044000 -13.229000 -1.360030 39.081100 -0.000007 -0.000012 -0.228592 0.338864 34.003400 40.985400 -0.000006 -0.000013 -0.584627 3.148950 -70.982300 11.754300 -0.000000 0.000003 -0.000230 -0.002079 -16.655700 -2.192510 6.469440 -0.000001 174.368000 19.898200 179.658000 -39.081100 -0.002282 -0.040193 -0.217902 0.333683 33.540300 -40.985400 0.000008 0.000006 4.319620 12.006900 -71.821100 -11.754300 -0.000006 -0.000006 -0.002166 -0.030779 -17.824700
0.000000 0.000000 0.000000 0.000000 0.000000 -0.000000 -1.525670 90.249800 -1.098720 89.482500 -3.330560 11.170100 15.735700 0.000005 -0.000001 89.668700 77.859100 -89.000100 8.984550 -0.406207 -0.000000 16.516300 -0.087333 1.351600 16.377300 -0.000001 -0.000001 6.642550 -4.669390 -0.722989 6.456720 -0.000001 -0.000000 -5.349510 -4.227510 1.303960 12.994200 -0.242716 4.980390 -89.618600 -1.122990 -71.237600 5.348090 -0.000007 -0.000001 -74.072700 -27.894100 -84.486900 24.328600 0.000019 0.000005 29.751100 -1.628940 -92.847200 22.291600 -0.000001 0.000005 16.152900 5.158420 3.741170 12.994500 -0.242716 -4.980390 88.802900 9.929850 -83.090900 -5.348130 -0.000001 -0.000004 -56.940200 34.653100 -22.327400 -24.328900 0.000322 -0.000009 1.630670 4.302550 -20.792000 -22.291500 -0.000108 -0.000004 16.828300 5.427380 -3.849530 -2.192480 -6.469440 -0.000000 -174.038000 -13.241700 -1.345990 39.081100 -0.000007 -0.000012 -0.226648 0.335560 34.036800 40.985400 -0.000006 -0.000013 -0.588669 3.147760 -71.019800 11.754300 -0.000000 0.000003 -0.000238 -0.002145 -16.658000 -2.192510 6.469440 -0.000001 174.356000 19.906500 179.663000 -39.081100 -0.002282 -0.040193 -0.222865 0.340705 33.576400 -40.985400 0.000008 0.000006 4.298660 12.006400 -71.846800 -11.754300 -0.000006 -0.000006 -0.002109 -0.030076 -17.796100
